<mxfile host="Electron" modified="2023-08-07T02:08:14.485Z" agent="Mozilla/5.0 (Macintosh; Intel Mac OS X 10_15_7) AppleWebKit/537.36 (KHTML, like Gecko) draw.io/21.2.8 Chrome/112.0.5615.165 Electron/24.2.0 Safari/537.36" etag="UZ0rh_QMCQgbDxYVDNow" version="21.2.8" type="device">
  <diagram name="第 1 页" id="y_sBdK6_EGcUX7g8eiqU">
    <mxGraphModel dx="954" dy="598" grid="1" gridSize="10" guides="1" tooltips="1" connect="1" arrows="1" fold="1" page="0" pageScale="1" pageWidth="827" pageHeight="1169" math="0" shadow="0">
      <root>
        <mxCell id="0" />
        <mxCell id="1" parent="0" />
        <mxCell id="0fvaz3YacZFxe_K5BSXG-23" value="" style="rounded=0;whiteSpace=wrap;html=1;" vertex="1" parent="1">
          <mxGeometry x="10" width="710" height="520" as="geometry" />
        </mxCell>
        <mxCell id="0fvaz3YacZFxe_K5BSXG-1" value="" style="rounded=0;whiteSpace=wrap;html=1;fillColor=#dae8fc;strokeColor=#6c8ebf;" vertex="1" parent="1">
          <mxGeometry x="120" y="120" width="560" height="360" as="geometry" />
        </mxCell>
        <mxCell id="0fvaz3YacZFxe_K5BSXG-14" style="edgeStyle=orthogonalEdgeStyle;rounded=0;orthogonalLoop=1;jettySize=auto;html=1;exitX=1;exitY=0.5;exitDx=0;exitDy=0;entryX=0.5;entryY=1;entryDx=0;entryDy=0;" edge="1" parent="1" source="0fvaz3YacZFxe_K5BSXG-3" target="0fvaz3YacZFxe_K5BSXG-7">
          <mxGeometry relative="1" as="geometry" />
        </mxCell>
        <mxCell id="0fvaz3YacZFxe_K5BSXG-20" style="edgeStyle=orthogonalEdgeStyle;rounded=0;orthogonalLoop=1;jettySize=auto;html=1;exitX=0.5;exitY=1;exitDx=0;exitDy=0;entryX=0.16;entryY=0.55;entryDx=0;entryDy=0;entryPerimeter=0;" edge="1" parent="1" source="0fvaz3YacZFxe_K5BSXG-3" target="0fvaz3YacZFxe_K5BSXG-19">
          <mxGeometry relative="1" as="geometry" />
        </mxCell>
        <mxCell id="0fvaz3YacZFxe_K5BSXG-3" value="gpt api" style="whiteSpace=wrap;html=1;aspect=fixed;fillColor=#fff2cc;strokeColor=#d6b656;" vertex="1" parent="1">
          <mxGeometry x="250" y="320" width="80" height="80" as="geometry" />
        </mxCell>
        <mxCell id="0fvaz3YacZFxe_K5BSXG-4" value="DrinkGPT" style="text;html=1;strokeColor=none;fillColor=none;align=center;verticalAlign=middle;whiteSpace=wrap;rounded=0;" vertex="1" parent="1">
          <mxGeometry x="130" y="120" width="60" height="30" as="geometry" />
        </mxCell>
        <mxCell id="0fvaz3YacZFxe_K5BSXG-11" style="edgeStyle=orthogonalEdgeStyle;rounded=0;orthogonalLoop=1;jettySize=auto;html=1;exitX=1;exitY=0.5;exitDx=0;exitDy=0;" edge="1" parent="1" source="0fvaz3YacZFxe_K5BSXG-6" target="0fvaz3YacZFxe_K5BSXG-7">
          <mxGeometry relative="1" as="geometry" />
        </mxCell>
        <mxCell id="0fvaz3YacZFxe_K5BSXG-6" value="drink api" style="whiteSpace=wrap;html=1;aspect=fixed;fillColor=#fff2cc;strokeColor=#d6b656;" vertex="1" parent="1">
          <mxGeometry x="250" y="160" width="80" height="80" as="geometry" />
        </mxCell>
        <mxCell id="0fvaz3YacZFxe_K5BSXG-13" style="edgeStyle=orthogonalEdgeStyle;rounded=0;orthogonalLoop=1;jettySize=auto;html=1;exitX=1;exitY=0.5;exitDx=0;exitDy=0;" edge="1" parent="1" source="0fvaz3YacZFxe_K5BSXG-7" target="0fvaz3YacZFxe_K5BSXG-12">
          <mxGeometry relative="1" as="geometry" />
        </mxCell>
        <mxCell id="0fvaz3YacZFxe_K5BSXG-7" value="drink rpc" style="whiteSpace=wrap;html=1;aspect=fixed;fillColor=#e1d5e7;strokeColor=#9673a6;" vertex="1" parent="1">
          <mxGeometry x="420" y="160" width="80" height="80" as="geometry" />
        </mxCell>
        <mxCell id="0fvaz3YacZFxe_K5BSXG-10" value="" style="edgeStyle=orthogonalEdgeStyle;rounded=0;orthogonalLoop=1;jettySize=auto;html=1;" edge="1" parent="1" source="0fvaz3YacZFxe_K5BSXG-8" target="0fvaz3YacZFxe_K5BSXG-6">
          <mxGeometry relative="1" as="geometry" />
        </mxCell>
        <mxCell id="0fvaz3YacZFxe_K5BSXG-8" value="管理员&lt;br&gt;" style="shape=umlActor;verticalLabelPosition=bottom;verticalAlign=top;html=1;outlineConnect=0;" vertex="1" parent="1">
          <mxGeometry x="275" y="10" width="30" height="60" as="geometry" />
        </mxCell>
        <mxCell id="0fvaz3YacZFxe_K5BSXG-12" value="Mysql" style="shape=cylinder3;whiteSpace=wrap;html=1;boundedLbl=1;backgroundOutline=1;size=15;fillColor=#f5f5f5;fontColor=#333333;strokeColor=#666666;" vertex="1" parent="1">
          <mxGeometry x="550" y="285" width="60" height="80" as="geometry" />
        </mxCell>
        <mxCell id="0fvaz3YacZFxe_K5BSXG-15" value="获取饮品数据" style="text;html=1;strokeColor=none;fillColor=none;align=center;verticalAlign=middle;whiteSpace=wrap;rounded=0;" vertex="1" parent="1">
          <mxGeometry x="350" y="335" width="80" height="30" as="geometry" />
        </mxCell>
        <mxCell id="0fvaz3YacZFxe_K5BSXG-17" value="" style="edgeStyle=orthogonalEdgeStyle;rounded=0;orthogonalLoop=1;jettySize=auto;html=1;entryX=0;entryY=0.5;entryDx=0;entryDy=0;" edge="1" parent="1" source="0fvaz3YacZFxe_K5BSXG-16" target="0fvaz3YacZFxe_K5BSXG-3">
          <mxGeometry relative="1" as="geometry">
            <Array as="points" />
          </mxGeometry>
        </mxCell>
        <mxCell id="0fvaz3YacZFxe_K5BSXG-16" value="用户" style="shape=umlActor;verticalLabelPosition=bottom;verticalAlign=top;html=1;outlineConnect=0;" vertex="1" parent="1">
          <mxGeometry x="50" y="330" width="30" height="60" as="geometry" />
        </mxCell>
        <mxCell id="0fvaz3YacZFxe_K5BSXG-18" value="Input：心情、喜好" style="text;html=1;strokeColor=none;fillColor=none;align=center;verticalAlign=middle;whiteSpace=wrap;rounded=0;" vertex="1" parent="1">
          <mxGeometry x="130" y="335" width="110" height="30" as="geometry" />
        </mxCell>
        <mxCell id="0fvaz3YacZFxe_K5BSXG-19" value="openai api&lt;br&gt;chatglm api" style="ellipse;shape=cloud;whiteSpace=wrap;html=1;fillColor=#f5f5f5;fontColor=#333333;strokeColor=#666666;" vertex="1" parent="1">
          <mxGeometry x="520" y="390" width="120" height="80" as="geometry" />
        </mxCell>
        <mxCell id="0fvaz3YacZFxe_K5BSXG-21" value="组装Prompt，请求API" style="text;html=1;strokeColor=none;fillColor=none;align=center;verticalAlign=middle;whiteSpace=wrap;rounded=0;" vertex="1" parent="1">
          <mxGeometry x="350" y="400" width="130" height="30" as="geometry" />
        </mxCell>
        <mxCell id="0fvaz3YacZFxe_K5BSXG-22" value="增删改查饮品种类、饮品等" style="text;html=1;strokeColor=none;fillColor=none;align=center;verticalAlign=middle;whiteSpace=wrap;rounded=0;" vertex="1" parent="1">
          <mxGeometry x="290" y="120" width="150" height="30" as="geometry" />
        </mxCell>
      </root>
    </mxGraphModel>
  </diagram>
</mxfile>
